<?xml version="1.0" encoding="utf-8"?>
<!-- Generator: Adobe Illustrator 27.5.0, SVG Export Plug-In . SVG Version: 6.00 Build 0)  -->
<svg version="1.1" xmlns="http://www.w3.org/2000/svg" xmlns:xlink="http://www.w3.org/1999/xlink" x="0px" y="0px"
	 viewBox="0 0 500 500" style="enable-background:new 0 0 500 500;" xml:space="preserve">
<g id="BACKGROUNG">
	<rect x="-0.227" y="-0.349" style="fill:#43A680;" width="500.455" height="500.698"/>
	<g>
		<g>
			<path style="fill:#8ECAB3;" d="M152.875,438.827c15.014,10.06,31.894,17.218,49.326,21.873
				c18.183,4.855,37.038,7.022,55.83,7.344c20.143,0.344,40.263-1.411,60.221-4.01c19.277-2.51,38.87-5.229,57.089-12.323
				c15.761-6.137,30.295-15.521,40.632-29.088c1.211-1.589,2.343-3.233,3.407-4.924c1.627-2.585-0.553-5.417-3.238-5.643
				c-8.439-0.71-15.897,4.85-23.09,8.423c-7.021,3.488-13.972,6.306-21.456,8.808c-14.939,4.995-30.849,8.216-46.176,10.087
				c-15.961,1.948-32.044,2.709-48.113,2.978c-8.21,0.137-16.429,0.206-24.639,0.065c-8.338-0.143-16.79-0.561-24.917-1.94
				c-4.211-0.715-8.383-1.667-12.465-2.929c-4.068-1.257-7.991-2.902-11.965-4.416c-3.759-1.432-7.56-2.659-11.531-3.342
				c-1.574-0.271-3.155-0.508-4.718-0.84c-0.771-0.164-1.538-0.348-2.293-0.575c-0.341-0.103-0.675-0.224-1.013-0.333
				c-0.112-0.036-0.675-0.263-0.078-0.01c-0.211-0.09-0.419-0.19-0.624-0.293c-0.304-0.153-0.603-0.317-0.892-0.496
				c-0.183-0.113-0.811-0.585-0.337-0.195c-0.305-0.251-0.584-0.527-0.857-0.812c-0.117-0.122-0.234-0.252-0.337-0.386
				c0.103,0.133,0.373,0.512-0.023-0.092c-1.71,1.71-3.42,3.42-5.131,5.131c6.76,3.821,13.493,7.689,20.516,11.012
				c6.396,3.027,12.963,5.711,19.65,8.023c13.234,4.574,26.931,7.609,40.822,9.318c27.553,3.391,55.916,1.05,82.529-6.863
				c15.003-4.461,29.508-10.724,42.987-18.685c4.153-2.453,0.384-8.939-3.785-6.476c-11.84,6.994-23.808,12.361-36.762,16.553
				c-6.426,2.08-12.961,3.822-19.568,5.227c-3.305,0.703-6.628,1.321-9.965,1.855c-3.438,0.55-5.949,0.884-9.473,1.259
				c-27.159,2.891-54.06,0.363-79.984-7.83c-7.221-2.282-14.14-4.928-20.752-7.964c-7.706-3.539-15.055-7.735-22.431-11.905
				c-3.134-1.771-7.255,1.891-5.131,5.131c4.324,6.595,12.124,6.477,18.997,8.161c8.339,2.043,16.014,6.124,24.344,8.258
				c16.792,4.303,34.372,4.112,51.58,3.987c16.301-0.119,32.617-0.63,48.845-2.245c16.321-1.624,32.593-4.3,48.357-8.896
				c7.902-2.304,15.639-5.113,23.182-8.408c3.671-1.604,7.286-3.338,10.831-5.206c3.467-1.827,6.82-3.94,10.461-5.042
				c1.948-0.589,3.303-0.773,5.403-0.597c-1.079-1.881-2.159-3.762-3.238-5.643c-8.298,13.185-21.331,22.626-35.774,29.003
				c-3.51,1.55-7.982,3.18-12.063,4.465c-4.498,1.416-9.065,2.61-13.665,3.645c-9.17,2.063-18.469,3.49-27.775,4.783
				c-19.437,2.699-39.029,4.651-58.667,4.771c-18.591,0.113-36.789-1.422-54.785-5.619c-16.957-3.955-33.082-10.036-47.954-19.058
				c-1.881-1.141-3.733-2.328-5.561-3.553c-1.683-1.128-4.153-0.327-5.131,1.345C150.452,435.538,151.188,437.697,152.875,438.827
				L152.875,438.827z"/>
		</g>
	</g>
	<path style="fill:#8ECAB3;" d="M393.722,87.792C320.921,83.06,247.8,78.32,174.501,79.423
		c-45.636,0.687-96.255,5.098-124.397,24.491c-20.545,14.158-24.325,33.218-25.838,51.18c-4.081,48.465,2.617,96.985,9.311,145.366
		c3.516,25.414,7.033,50.828,10.549,76.242c1.144,8.266,2.344,16.672,7.872,24.406c9.8,13.71,32.501,23.879,57.632,29.546
		c25.132,5.667,52.696,7.333,79.891,8.166c65.004,1.99,130.471-0.459,194.344-7.272c15.291-1.631,31.067-3.655,43.269-8.887
		c17.104-7.333,23.947-19.476,29.083-30.931c31.916-71.185,33.458-145.231,30.84-218.455c-0.739-20.68-2.194-42.212-20.181-60.479
		s-57.731-32.049-94.458-26.108"/>
	<g>
		<g>
			<path style="fill:#8ECAB3;" d="M86.742,94.968c7.707-5.356,16.227-9.502,24.779-13.317c7.688-3.43,15.837-6.536,24.05-9.213
				c8.399-2.738,16.936-5.049,25.566-6.935c8.421-1.841,17.135-3.314,25.368-4.286c17.516-2.067,35.226-2.464,52.82-1.234
				c17.471,1.222,34.524,4.038,51.631,8.538c8.498,2.235,16.891,4.868,25.14,7.894c8.084,2.966,15.997,5.939,23.151,10.954
				c1.636,1.146,3.123,2.395,4.673,3.897c1.515-1.963,3.03-3.926,4.544-5.89c-27.919-13.309-59.629-15.656-90.127-15.661
				c-16.067-0.003-32.12,0.771-48.165,1.534c-14.916,0.709-29.85,1.464-44.676,3.321c-16.797,2.104-33.456,5.541-49.202,11.887
				c1.216,2.089,2.432,4.178,3.649,6.268c4.393-4.349,10.253-6.76,16.198-8.645c6.921-2.195,13.975-4.022,21.044-5.669
				c14.605-3.403,29.391-5.79,44.305-7.117c14.998-1.334,30.087-1.637,45.126-0.894c13.59,0.671,26.304,1.864,39.425,5.135
				c6.841,1.706,13.505,3.946,19.521,6.895c3.147,1.542,6.197,3.284,9.104,5.242c2.966,1.999,5.267,3.849,7.966,6.398
				c1.472,1.39,3.842,1.461,5.303,0c1.404-1.404,1.478-3.908,0-5.303c-20.051-18.933-48.639-23.686-75.126-25.502
				c-31.032-2.128-62.381,0.229-92.776,6.825c-8.292,1.799-16.54,3.889-24.655,6.375c-7.533,2.308-15.047,5.322-20.74,10.957
				c-1.18,1.168-1.423,3.115-0.586,4.544c0.771,1.318,2.719,2.334,4.235,1.723c27.422-11.051,56.91-13.214,86.122-14.661
				c31.155-1.544,62.653-3.439,93.728,0.267c15.784,1.882,32.052,5.65,46.542,12.558c1.684,0.803,3.662,0.608,4.838-0.966
				c1.094-1.464,1.074-3.598-0.293-4.924c-6.687-6.483-15.092-10.474-23.637-13.904c-8.356-3.355-16.887-6.282-25.532-8.8
				c-17.419-5.074-35.324-8.435-53.381-10.166c-17.783-1.705-35.728-1.746-53.516-0.079c-18.007,1.687-35.868,5.038-53.205,10.204
				c-8.61,2.566-17.089,5.573-25.385,9.022c-8.689,3.612-17.337,7.536-25.455,12.314c-2.101,1.237-4.156,2.548-6.158,3.939
				c-1.661,1.154-2.425,3.285-1.345,5.131C82.573,95.267,85.07,96.13,86.742,94.968L86.742,94.968z"/>
		</g>
	</g>
</g>
<g id="OBJECTS">
	<path style="fill:#DE9D8F;" d="M256.204,383.68c0,0-2.54,49.16-91.7,49.16S53.694,395.9,53.694,395.9
		c12.23-3.31,29.8-14.77,49.42-23.94c0.55-0.26,1.09-0.55,1.61-0.88c16.35-10.14,15.35-50.32,15.35-50.32l81.87-4.08
		c1.48,22.13,7.93,36.96,15.9,46.88C233.924,383.6,256.204,383.68,256.204,383.68z"/>
	<path style="fill:#EC5E00;" d="M215.588,133.982c5.612-1.003,11.873-1.872,16.608,1.302c2.468,1.654,4.173,4.215,5.611,6.816
		c6.156,11.136,8.517,24.059,8.607,36.783c0.09,12.724-1.989,25.355-4.241,37.878c-0.525,2.92-1.066,5.859-2.133,8.628
		c-0.652,1.691-2.571,2.059-4.35,2.404c-40.97,7.929-83.141,5.018-124.853,6.273c-8.668,0.261-18.407,0.316-24.611-5.743
		c-3.914-3.821-5.666-9.66-10.028-12.959c-2.621-1.982-5.614-3.48-8.008-5.731c-4.03-3.79-5.991-9.658-5.048-15.109
		c0.942-5.451,4.759-10.32,9.827-12.537c-10.009-7.108-15.654-19.756-14.332-31.96c0.482-4.448,1.873-8.874,4.56-12.451
		c3.563-4.742,9.073-7.612,14.612-9.733c3.712-1.421,7.875-2.574,11.592-1.168c0.373-8.106,5.873-15.774,13.562-18.369
		c2.442-0.824,5.191-1.159,7.557-0.136c2.366,1.023,4.123,3.72,3.42,6.2c1.009-5.094,5.138-9.435,10.176-10.696
		c1.603-0.401,3.387-0.488,4.825,0.325c1.985,1.123,2.732,3.561,3.308,5.768c0.795-6.437,5.716-11.132,11.872-13.176
		c6.156-2.044,12.876-1.476,19.236-0.201c2.766,0.554,5.618,1.294,7.758,3.132c2.139,1.838,3.323,5.081,1.999,7.571
		c1.094-2.254,2.897-4.116,4.966-5.529c5.009-3.422,11.963-4.141,17.223-1.121s8.158,9.962,5.934,15.605
		c4.735-1.337,9.478-0.807,13.593,1.89c1.268,0.831,2.457,1.869,3.121,3.232c0.733,1.505,0.757,3.243,0.767,4.917
		C218.734,129.103,216.565,131.129,215.588,133.982z"/>
	
		<ellipse transform="matrix(0.9431 -0.3324 0.3324 0.9431 -76.4308 39.6452)" style="fill:#DE9D8F;" cx="77.66" cy="243.216" rx="23.5" ry="33"/>
	<path style="fill:#C7653B;" d="M92.036,279.15c0,0-10.328-39.935-16.328-38.935c0,0-8,9-4,19c0,0-11-13-7-28s21-14,21-14
		L92.036,279.15z"/>
	<g>
		<g>
			<path d="M66,225.079c-4.718,10.503-1.664,22.135,3.606,31.792c0.463,0.848,1.758,0.091,1.295-0.757
				c-4.981-9.128-8.084-20.308-3.606-30.278C67.688,224.963,66.395,224.199,66,225.079L66,225.079z"/>
		</g>
	</g>
	<g>
		<g>
			<path d="M82.509,237.394c-1.612-0.225-3.225,0.312-4.218,1.648c-0.974,1.311-1.077,3.068-0.364,4.519
				c0.716,1.458,2.127,2.366,3.067,3.652c1.088,1.49,1.251,3.403,1.4,5.182c0.08,0.955,1.581,0.964,1.5,0
				c-0.126-1.503-0.256-3.046-0.819-4.459c-0.536-1.345-1.457-2.327-2.454-3.344c-0.924-0.942-1.869-2.025-1.634-3.447
				c0.243-1.466,1.644-2.512,3.125-2.305C83.054,238.972,83.462,237.527,82.509,237.394L82.509,237.394z"/>
		</g>
	</g>
	
		<ellipse transform="matrix(0.3324 -0.9431 0.9431 0.3324 -71.4089 385.5487)" style="fill:#DE9D8F;" cx="236.636" cy="243.216" rx="33" ry="23.5"/>
	<path style="fill:#C7653B;" d="M222.261,279.15c0,0,10.328-39.935,16.328-38.935c0,0,8,9,4,19c0,0,11-13,7-28s-21-14-21-14
		L222.261,279.15z"/>
	<g>
		<g>
			<path d="M247.001,225.836c4.478,9.969,1.375,21.15-3.606,30.278c-0.463,0.848,0.832,1.606,1.295,0.757
				c5.27-9.657,8.324-21.289,3.606-31.792C247.901,224.2,246.608,224.962,247.001,225.836L247.001,225.836z"/>
		</g>
	</g>
	<g>
		<g>
			<path d="M232.186,238.841c1.444-0.202,2.813,0.785,3.102,2.202c0.299,1.462-0.66,2.579-1.612,3.55
				c-0.966,0.985-1.877,1.941-2.411,3.237c-0.595,1.445-0.733,3.024-0.863,4.567c-0.081,0.962,1.42,0.957,1.5,0
				c0.149-1.78,0.313-3.691,1.4-5.182c0.94-1.289,2.344-2.195,3.067-3.652c0.719-1.45,0.605-3.208-0.364-4.519
				c-0.989-1.338-2.609-1.872-4.218-1.648C230.835,237.527,231.241,238.972,232.186,238.841L232.186,238.841z"/>
		</g>
	</g>
	<g>
		<g>
			<path style="fill:#7A3731;" d="M343.214,131.881c-4.969-0.019-9.942-0.027-14.909-0.092c-9.432-0.123-23.139-5.399-30.222,3.308
				c-4.294,5.279-2.168,12.755,2.448,17.175c3.632,3.478,8.596,5.455,13.619,6.6c11.214,2.556,23.318,1.263,33.766-3.361
				c4.769-2.111,9.409-5.108,11.705-9.592c2.296-4.484,1.442-10.683-2.996-13.363C352.813,130.256,347.385,130.887,343.214,131.881"
				/>
		</g>
		<path style="fill:#D06867;" d="M304.866,155.448c0,0,0.555-13.905,22.423-16.531s32.331,7.003,32.331,7.003
			s-5.937,6.773-8.821,8.183c-2.884,1.41-13.488,5.668-22.495,6.063c-9.007,0.395-22.772-3.282-23.438-3.913
			C304.2,155.622,304.866,155.448,304.866,155.448z"/>
		<path style="fill:#F4F4ED;" d="M304.356,154.584c0.387-1.22,0.129-6.22,2.963-5.61c2.835,0.61,7.988,3.537,15.204,3.537
			c7.215,0,16.879-2.439,21.13-3.537c4.252-1.098,4.896,0,5.669,1.098c0.773,1.098,1.477,4.031,1.477,4.031
			s-14.781,6.401-22.495,6.063C320.59,159.828,308.221,157.876,304.356,154.584z"/>
		<path style="fill:#F4F4ED;" d="M309.335,130.094c0,0,2.026,9.363,11.332,9.839c9.306,0.476,18.486,0.595,22.762-2.023
			c4.276-2.619,7.371-6.626,7.371-6.626s-17.934,1.151-23.719,0.318C321.296,130.768,309.335,130.094,309.335,130.094z"/>
		<g>
			<g>
				<path d="M343.214,131.131c-3.541-0.013-7.083-0.021-10.624-0.048c-2.735-0.021-5.458-0.013-8.18-0.313
					c-4.735-0.522-9.45-1.498-14.233-1.422c-4.478,0.072-9.003,1.233-12.124,4.639c-3.533,3.857-3.767,9.219-1.627,13.832
					c2.345,5.055,7.151,8.28,12.223,10.201c5.691,2.156,11.961,2.987,18.025,2.888c6.256-0.102,12.515-1.259,18.383-3.432
					c5.104-1.89,10.381-4.49,13.762-8.907c2.867-3.745,3.795-8.974,1.456-13.234c-2.653-4.83-8.494-5.52-13.454-4.881
					c-1.282,0.165-2.55,0.408-3.808,0.704c-0.939,0.221-0.542,1.667,0.399,1.446c4.488-1.055,10.629-1.914,14.243,1.707
					c3.174,3.18,3.044,8.44,0.831,12.098c-2.717,4.492-7.716,7.183-12.442,9.084c-5.322,2.141-10.989,3.434-16.713,3.806
					c-5.744,0.373-11.579-0.138-17.128-1.694c-5.058-1.418-10.287-3.913-13.286-8.415c-2.593-3.892-3.471-9.145-0.616-13.149
					c2.575-3.611,6.87-4.998,11.132-5.174c4.413-0.182,8.797,0.614,13.156,1.18c5.235,0.68,10.51,0.545,15.779,0.565
					c1.615,0.006,3.231,0.011,4.846,0.017C344.179,132.635,344.181,131.135,343.214,131.131L343.214,131.131z"/>
			</g>
		</g>
		<g>
			<g>
				<path d="M308.484,148.31c2.16-2.615,4.699-5.118,8.015-6.148c0.919-0.285,0.527-1.734-0.399-1.446
					c-3.571,1.108-6.344,3.71-8.677,6.533c-0.258,0.312-0.306,0.755,0,1.061C307.689,148.576,308.224,148.624,308.484,148.31
					L308.484,148.31z"/>
			</g>
		</g>
		<g>
			<g>
				<path d="M345.289,140.851c-0.038,0-0.076,0-0.113,0c-0.103-0.004-0.2,0.018-0.289,0.065c-0.093,0.03-0.173,0.082-0.241,0.155
					c-0.073,0.068-0.125,0.148-0.155,0.241c-0.047,0.089-0.068,0.186-0.065,0.289c0.009,0.066,0.018,0.133,0.027,0.199
					c0.036,0.127,0.1,0.237,0.193,0.331c0.051,0.039,0.101,0.078,0.152,0.117c0.117,0.068,0.243,0.102,0.379,0.102
					c0.038,0,0.076,0,0.113,0c0.103,0.004,0.2-0.018,0.289-0.065c0.093-0.03,0.173-0.082,0.241-0.155
					c0.073-0.068,0.125-0.148,0.155-0.241c0.047-0.089,0.068-0.186,0.065-0.289c-0.009-0.066-0.018-0.133-0.027-0.199
					c-0.036-0.127-0.1-0.237-0.193-0.331c-0.051-0.039-0.101-0.078-0.152-0.117C345.551,140.885,345.425,140.851,345.289,140.851
					L345.289,140.851z"/>
			</g>
		</g>
		<g>
			<g>
				<path d="M346.196,145.14c0.038,0,0.076,0,0.113,0c0.103,0.004,0.2-0.018,0.289-0.065c0.093-0.03,0.173-0.082,0.241-0.155
					c0.073-0.068,0.125-0.148,0.155-0.241c0.047-0.089,0.069-0.186,0.065-0.289c-0.009-0.066-0.018-0.133-0.027-0.199
					c-0.036-0.127-0.1-0.237-0.193-0.331c-0.051-0.039-0.101-0.078-0.152-0.117c-0.117-0.068-0.243-0.102-0.379-0.102
					c-0.038,0-0.076,0-0.113,0c-0.103-0.004-0.2,0.018-0.289,0.065c-0.093,0.03-0.173,0.082-0.241,0.155
					c-0.073,0.068-0.125,0.148-0.155,0.241c-0.047,0.089-0.068,0.186-0.065,0.289c0.009,0.066,0.018,0.133,0.027,0.199
					c0.036,0.127,0.1,0.237,0.193,0.331c0.051,0.039,0.101,0.078,0.152,0.117C345.935,145.105,346.061,145.14,346.196,145.14
					L346.196,145.14z"/>
			</g>
		</g>
		<g>
			<g>
				<path d="M349.936,144.282c0.965,0,0.967-1.5,0-1.5C348.971,142.782,348.97,144.282,349.936,144.282L349.936,144.282z"/>
			</g>
		</g>
	</g>
	<g>
		<g>
			<path style="fill:#7A3731;" d="M446.094,147.4c0.06-0.02,0.12-0.04,0.18-0.05c0.79-0.25,1.53-0.59,2.18-1.08
				c0.1-0.08,0.2-0.16,0.3-0.25c0.6-0.52,1.09-1.3,0.88-2.06c-0.09-0.33-0.31-0.62-0.54-0.87c-1.79-1.96-4.55-2.67-7.16-3.14
				c-2.34-0.41-4.7-0.71-7.07-0.87c-0.04,0-0.08-0.01-0.12-0.01l0.14,0.03c-0.23-0.04-0.47-0.07-0.7-0.1
				c-1.63-0.25-3.27-0.45-4.91-0.61c-0.61-0.06-1.22-0.11-1.83-0.15c-9.91-0.73-19.94,0.17-29.56,2.67
				c-1.5,0.39-3.06,0.85-4.22,1.89c-1.16,1.04-1.8,2.82-1.08,4.2c0.07,0.14,0.16,0.27,0.26,0.4c0.07,0.08,0.14,0.16,0.22,0.24
				c0.11,0.12,0.24,0.23,0.37,0.34c0.08,0.07,0.16,0.13,0.25,0.19c0.76,0.49,1.72,0.76,2.62,0.96c0.72,0.16,1.45,0.32,2.17,0.46
				c0.01,0,0.01-0.01,0.02,0c1.45-0.11,2.99-0.51,4.26-0.65c0.41-0.04,0.81-0.08,1.22-0.11c3.28-0.26,6.58-0.17,9.87-0.23
				c6.02-0.12,12.01-0.74,18.02-1.03c2.55-0.12,5.12-0.19,7.67-0.12L446.094,147.4z"/>
		</g>
		<path style="fill:#F4F4ED;" d="M439.534,147.45c-2.55-0.07-5.12,0-7.67,0.12c-6.01,0.29-12,0.91-18.02,1.03
			c-3.29,0.06-6.59-0.03-9.87,0.23c-2.07-2.37-2.9-5.88-3.55-8.39c0,0,6.98-1.02,10.91-1.75c3.36-0.61,13.28-0.49,16.11-0.45
			c0.48,0.01,0.76,0.02,0.76,0.02l1.07,0.13l4.91,0.61l0.56,0.07c0.04,0,0.08,0.01,0.12,0.01l7.07,0.87
			C442.364,143.48,440.934,145.94,439.534,147.45z"/>
		<g>
			<g>
				<path d="M435.083,138.377c-8.895-1.366-17.911-1.492-26.832-0.272c-2.254,0.308-4.497,0.698-6.722,1.173
					c-2.079,0.444-4.257,0.852-6.227,1.671c-1.607,0.668-3.017,1.786-3.567,3.494c-0.518,1.611,0.009,3.158,1.319,4.186
					c1.53,1.199,3.478,1.843,5.419,1.712c1.97-0.132,3.89-0.647,5.865-0.787c4.631-0.329,9.286-0.126,13.924-0.368
					c4.659-0.244,9.306-0.67,13.966-0.881c2.312-0.105,4.627-0.16,6.941-0.112c2.08,0.043,4.216,0.354,6.287,0.079
					c1.791-0.238,4.024-1.203,4.765-2.99c0.78-1.882-1.039-3.375-2.494-4.234c-1.7-1.004-3.668-1.473-5.593-1.818
					c-2.448-0.439-4.913-0.7-7.389-0.907c-0.962-0.08-0.957,1.42,0,1.5c3.518,0.293,7.267,0.536,10.611,1.764
					c1.073,0.394,4.339,1.848,3.349,3.377c-0.969,1.497-3.088,1.895-4.721,1.908c-1.846,0.014-3.695-0.168-5.543-0.191
					c-2.01-0.025-4.021,0.029-6.029,0.117c-4.108,0.181-8.206,0.533-12.31,0.784c-4.038,0.247-8.067,0.252-12.11,0.323
					c-1.876,0.033-3.772,0.088-5.634,0.337c-1.772,0.238-3.638,0.872-5.438,0.55c-1.45-0.259-3.778-1.248-3.883-2.949
					c-0.118-1.894,1.685-3.108,3.249-3.673c3.577-1.295,7.549-1.91,11.299-2.465c8.977-1.328,18.136-1.256,27.101,0.121
					C435.629,139.968,436.036,138.523,435.083,138.377L435.083,138.377z"/>
			</g>
		</g>
	</g>
	<g>
		<g>
			<path style="fill:#7A3731;" d="M334.81,212.746c-3.247,0.807-6.625,1.088-9.961,0.828c-3.688-0.287-7.291-1.226-10.953-1.746
				c-3.662-0.52-7.506-0.598-10.941,0.774s-6.374,4.455-6.692,8.14c-0.336,3.904,2.24,7.504,5.276,9.981
				c3.782,3.087,8.394,5.022,13.117,6.256c12.029,3.144,25.487,1.71,35.823-5.202c1.717-1.149,3.363-2.459,4.577-4.131
				c1.15-1.582,1.876-3.442,2.314-5.348c0.587-2.558,0.616-5.426-0.842-7.608c-1.32-1.975-3.671-3.067-6.023-3.401
				s-4.741-0.003-7.094,0.326c-3.984,0.559-7.969,1.118-11.953,1.676"/>
		</g>
		<path style="fill:#F4F4ED;" d="M305.741,211.511c0.124,3.969-0.744,13.023,3.969,13.643s28.774,2.977,35.843-1.488
			c2.356-1.488,2.853-6.945,2.108-12.402c0,0-9.55,1.24-11.782,1.736c-2.232,0.496-16.123,1.116-19.844-0.62
			C312.314,210.643,305.741,211.511,305.741,211.511z"/>
		<path style="fill:#F4F4ED;" d="M310.95,224.782c-2.255-2.255-3.473,9.178-3.473,9.178s6.697,4.465,14.883,4.465
			s20.216-0.992,23.813-3.969c0,0,1.244-11.979-2.108-10.542C343.196,224.286,311.074,224.906,310.95,224.782z"/>
		<g>
			<g>
				<path d="M334.611,212.023c-2.963,0.718-6,1.015-9.046,0.848c-3.037-0.166-6.01-0.828-8.996-1.362
					c-5.084-0.911-10.773-1.518-15.462,1.155c-3.928,2.239-6.497,6.587-5.311,11.137c1.231,4.723,5.49,8.151,9.583,10.393
					c8.79,4.815,19.731,6.11,29.534,4.451c4.859-0.823,9.601-2.46,13.873-4.929c2.167-1.252,4.346-2.697,6.024-4.576
					c1.743-1.952,2.815-4.39,3.349-6.937c0.53-2.527,0.553-5.356-0.821-7.635c-1.346-2.232-3.838-3.534-6.35-3.957
					c-3.188-0.537-6.426,0.094-9.586,0.537c-3.381,0.474-6.762,0.948-10.142,1.422c-0.952,0.134-0.547,1.579,0.399,1.446
					c2.777-0.389,5.554-0.779,8.331-1.168c2.659-0.373,5.346-0.889,8.036-0.943c2.367-0.047,4.889,0.381,6.751,1.953
					c1.872,1.581,2.373,3.977,2.179,6.327c-0.198,2.385-1.006,4.841-2.358,6.818c-1.388,2.029-3.462,3.509-5.522,4.79
					c-3.828,2.381-8.066,4.033-12.464,4.998c-9.07,1.99-19.057,1.152-27.614-2.503c-4.209-1.798-8.602-4.528-10.857-8.654
					c-1.048-1.918-1.486-4.141-0.853-6.268c0.588-1.973,1.985-3.652,3.652-4.823c4.733-3.327,10.971-2.383,16.288-1.394
					c2.938,0.547,5.881,1.134,8.875,1.246c2.997,0.112,5.995-0.22,8.907-0.926C335.947,213.242,335.55,211.795,334.611,212.023
					L334.611,212.023z"/>
			</g>
		</g>
		<g>
			<g>
				<path d="M315.468,226.194c10.196,0.539,20.547,0.524,30.486-2.102c0.932-0.246,0.537-1.694-0.399-1.446
					c-9.811,2.592-20.023,2.58-30.087,2.048C314.503,224.643,314.506,226.143,315.468,226.194L315.468,226.194z"/>
			</g>
		</g>
		<g>
			<g>
				<path d="M338.272,222.95c-0.004,0.287-0.017,0.573-0.04,0.859c-0.012,0.143-0.026,0.285-0.042,0.428
					c-0.004,0.035-0.036,0.271-0.011,0.096c-0.009,0.065-0.019,0.131-0.029,0.196c-0.089,0.567-0.218,1.126-0.382,1.675
					c-0.113,0.376,0.135,0.834,0.524,0.923c0.404,0.092,0.802-0.121,0.923-0.524c0.354-1.182,0.54-2.418,0.558-3.652
					c0.006-0.392-0.349-0.768-0.75-0.75C338.611,222.218,338.278,222.529,338.272,222.95L338.272,222.95z"/>
			</g>
		</g>
	</g>
	<g>
		<g>
			<path style="fill:#7A3731;" d="M449.865,211.88c-0.651-0.772-1.509-1.435-2.609-1.949c-3.155-1.476-6.994-1.31-10.482-0.607
				c-5.768,1.162-11.233,5.79-17.32,5.087c-5.815-0.671-10.462-4.418-16.288-5.033c-4.825-0.509-10.339,0.648-12.16,4.884
				c-1.31,3.048-1.08,6.504,0.207,9.559c1.288,3.055,3.575,5.734,6.253,8.002c4.499,3.809,10.215,6.555,16.362,7.631
				c6.502,1.138,13.341,0.394,19.544-1.652c5.107-1.685,9.93-4.321,13.193-8.14C450.047,225.587,453.884,216.645,449.865,211.88z"/>
		</g>
		<path style="fill:#D06867;" d="M401.441,231.359c0,0,4.728-10.68,19.398-11.949s28.128,4.653,28.128,6.027
			c0,0-2.304,5.922-5.941,7.931c-3.637,2.009-12.124,5.181-16.489,6.027c-4.365,0.846-14.185,1.163-19.277-2.432
			C402.168,233.368,401.441,231.359,401.441,231.359z"/>
		<path style="fill:#F4F4ED;" d="M397.047,230.958c0.305-3.456,1.219-6.247,3.658-5.583c2.438,0.665,10.058,6.114,21.488,4.785
			c11.43-1.329,16.612-6.646,20.117-5.317c3.505,1.329,4.255,4.817,4.255,4.817s-7.957,7.273-13.193,8.14
			c-5.236,0.867-11.332,3.126-15.142,2.462c-3.81-0.665-13.716-3.456-16.154-5.45S397.047,230.958,397.047,230.958z"/>
		<path style="fill:#F4F4ED;" d="M397.809,210.09c-1.372,4.121,1.829,10.235,5.639,11.83c3.81,1.595,29.239,5.425,37.491-2.924
			c3.81-3.855,1.981-10.501,1.524-10.102c-0.457,0.399-4.267-0.665-11.43,2.526c-7.163,3.19-14.63,2.791-14.63,2.791
			s-9.906-6.114-15.392-4.918C395.523,210.489,397.809,210.09,397.809,210.09z"/>
		<g>
			<g>
				<path d="M450.396,211.35c-3.676-4.18-10.633-3.806-15.488-2.322c-4.991,1.525-9.723,5.145-15.16,4.664
					c-5.513-0.488-10.17-4.098-15.609-4.935c-4.203-0.646-9.632-0.206-12.593,3.255c-3.611,4.221-2.272,10.749,0.534,14.989
					c3.005,4.539,7.689,8.013,12.571,10.31c10.662,5.016,23.472,4.295,33.974-0.827c4.41-2.151,8.281-5.259,10.741-9.551
					c2.124-3.705,3.907-8.674,2.503-12.932C451.545,213.017,451.047,212.151,450.396,211.35c-0.61-0.749-1.665,0.318-1.061,1.061
					c2.75,3.379,1.296,8.541-0.376,12.065c-1.951,4.114-5.012,7.268-8.938,9.563c-9.284,5.428-21.409,6.822-31.569,3.226
					c-4.866-1.722-9.464-4.575-12.981-8.375c-3.503-3.785-6.201-9.662-3.609-14.691c1.986-3.853,7.187-4.457,11.044-4.096
					c5.045,0.473,9.359,3.473,14.217,4.648c2.691,0.651,5.326,0.575,7.977-0.219c2.576-0.772,4.978-2.01,7.452-3.044
					c2.703-1.129,5.504-1.84,8.444-1.927c2.991-0.089,6.273,0.501,8.338,2.85C449.974,213.137,451.031,212.072,450.396,211.35z"/>
			</g>
		</g>
		<g>
			<g>
				<path d="M428.972,225.813c-0.072,0-0.144,0-0.216,0c-0.103-0.004-0.2,0.018-0.289,0.065c-0.093,0.03-0.173,0.082-0.241,0.155
					c-0.073,0.068-0.125,0.148-0.155,0.241c-0.047,0.089-0.068,0.186-0.065,0.289c0.009,0.066,0.018,0.133,0.027,0.199
					c0.036,0.127,0.1,0.237,0.193,0.331c0.051,0.039,0.101,0.078,0.152,0.117c0.117,0.068,0.243,0.102,0.379,0.102
					c0.072,0,0.144,0,0.216,0c0.103,0.004,0.2-0.018,0.289-0.065c0.093-0.03,0.173-0.082,0.241-0.155
					c0.073-0.068,0.125-0.148,0.155-0.241c0.047-0.089,0.069-0.186,0.065-0.289c-0.009-0.066-0.018-0.133-0.027-0.199
					c-0.036-0.127-0.1-0.237-0.193-0.331c-0.051-0.039-0.101-0.078-0.152-0.117C429.234,225.848,429.108,225.814,428.972,225.813
					L428.972,225.813z"/>
			</g>
		</g>
		<g>
			<g>
				<path d="M439.421,223.085c0-0.031,0-0.063,0-0.094c0.004-0.103-0.018-0.2-0.065-0.289c-0.03-0.093-0.082-0.173-0.155-0.241
					c-0.068-0.073-0.148-0.125-0.241-0.155c-0.089-0.047-0.186-0.068-0.289-0.065c-0.066,0.009-0.133,0.018-0.199,0.027
					c-0.127,0.036-0.237,0.1-0.331,0.193c-0.039,0.051-0.078,0.101-0.117,0.152c-0.068,0.117-0.102,0.243-0.102,0.379
					c0,0.031,0,0.063,0,0.094c-0.004,0.103,0.018,0.2,0.065,0.289c0.03,0.093,0.082,0.173,0.155,0.241
					c0.068,0.073,0.148,0.125,0.241,0.155c0.089,0.047,0.186,0.068,0.289,0.065c0.066-0.009,0.133-0.018,0.199-0.027
					c0.127-0.036,0.237-0.1,0.331-0.193c0.039-0.051,0.078-0.101,0.117-0.152C439.387,223.347,439.421,223.221,439.421,223.085
					L439.421,223.085z"/>
			</g>
		</g>
		<g>
			<g>
				<path d="M434.899,225.715c0.965,0,0.967-1.5,0-1.5C433.934,224.215,433.933,225.715,434.899,225.715L434.899,225.715z"/>
			</g>
		</g>
		<g>
			<g>
				<path d="M431.235,225.339c0.965,0,0.967-1.5,0-1.5C430.27,223.839,430.269,225.339,431.235,225.339L431.235,225.339z"/>
			</g>
		</g>
	</g>
	<g>
		<g>
			<path style="fill:#7A3731;" d="M356.259,290.031c2.328-4.751,0.648-9.553-4.232-11.326c-1.981-0.72-4.102-0.97-6.206-1.092
				c-10.148-0.588-20.43,0.051-30.591,1c-2.918,0.273-5.848,0.591-8.673,1.37c-2.755,0.76-5.665,2.249-6.548,4.967
				c-0.634,1.953-0.04,4.132,1.053,5.871c1.953,3.105,5.364,5.065,8.906,6.018s7.255,1.011,10.923,1.062
				c2.512,0.035,5.024,0.071,7.537,0.106c5.877,0.083,11.823,0.158,17.545-1.187C350.109,295.849,354.389,293.846,356.259,290.031z"
				/>
		</g>
		<path style="fill:#F4F4ED;" d="M310.388,279.894c-0.719,0.231-0.56,8.11,3.08,8.395c3.641,0.285,26.464,0.285,30.804-1.707
			c4.341-1.992,5.275-8.97,4.248-8.967S315.709,278.186,310.388,279.894z"/>
		<path style="fill:#F4F4ED;" d="M306.719,295.721c0-2.819-1.302-7.283,1.823-7.753c3.125-0.47,39.449-2.349,41.141-0.705
			c1.693,1.645-1.693,9.046-1.693,9.046s-14.972,1.88-23.565,1.88C315.833,298.188,306.719,295.721,306.719,295.721z"/>
		<g>
			<g>
				<path d="M356.907,290.41c1.542-3.249,1.62-7.079-0.844-9.904c-2.974-3.41-8.085-3.566-12.261-3.743
					c-5.345-0.226-10.7-0.129-16.041,0.154c-5.228,0.277-10.484,0.636-15.681,1.279c-3.925,0.486-8.883,1.159-11.592,4.41
					c-2.816,3.379-1.141,7.965,1.66,10.763c3.097,3.093,7.399,4.434,11.647,4.939c5.063,0.602,10.262,0.394,15.354,0.462
					c5.688,0.076,11.455,0.09,17.024-1.224C350.42,296.543,354.838,294.474,356.907,290.41c0.437-0.859-0.857-1.619-1.295-0.757
					c-1.721,3.382-5.237,5.184-8.757,6.168c-4.336,1.213-8.899,1.445-13.378,1.474c-4.608,0.029-9.221-0.08-13.828-0.161
					c-4.34-0.077-8.885-0.286-12.837-2.278c-3.21-1.619-7.001-5.097-6.232-9.113c0.767-4.005,5.91-5.134,9.264-5.717
					c4.556-0.793,9.248-1.041,13.856-1.36c4.73-0.328,9.47-0.535,14.212-0.528c2.637,0.004,5.276,0.068,7.909,0.226
					c2.421,0.145,5.035,0.411,7.194,1.609c3.602,1.999,4.276,6.14,2.596,9.679C355.2,290.52,356.492,291.282,356.907,290.41z"/>
			</g>
		</g>
	</g>
	<g>
		<g>
			<g>
				<path d="M394.207,286.495c13.354,0.801,26.765,0.553,40.078-0.766c3.73-0.37,7.452-0.826,11.162-1.357
					c0.952-0.136,0.547-1.582-0.399-1.446c-13.115,1.875-26.376,2.71-39.622,2.499c-3.743-0.06-7.483-0.206-11.219-0.43
					C393.243,284.937,393.246,286.438,394.207,286.495L394.207,286.495z"/>
			</g>
		</g>
		<g>
			<g>
				<path d="M393.788,283.702c-0.201,0.631-0.425,1.253-0.675,1.866c-0.031,0.075-0.062,0.15-0.093,0.225
					c0.058-0.138-0.036,0.083-0.047,0.109c-0.065,0.149-0.131,0.298-0.199,0.445c-0.14,0.306-0.287,0.609-0.439,0.91
					c-0.177,0.35-0.104,0.829,0.269,1.026c0.341,0.18,0.837,0.105,1.026-0.269c0.637-1.259,1.176-2.57,1.604-3.914
					c0.119-0.374-0.14-0.835-0.524-0.923C394.301,283.085,393.916,283.301,393.788,283.702L393.788,283.702z"/>
			</g>
		</g>
		<g>
			<g>
				<path d="M445.152,282.066c-0.105,1.157,0.047,2.35,0.434,3.446c0.13,0.369,0.518,0.655,0.923,0.524
					c0.364-0.118,0.664-0.527,0.524-0.923c-0.093-0.264-0.174-0.532-0.238-0.805c-0.028-0.117-0.052-0.234-0.074-0.352
					c-0.015-0.079-0.027-0.158-0.04-0.236c-0.028-0.162,0.014,0.139-0.006-0.038c-0.061-0.538-0.071-1.076-0.022-1.616
					c0.035-0.392-0.37-0.767-0.75-0.75C445.465,281.335,445.19,281.646,445.152,282.066L445.152,282.066z"/>
			</g>
		</g>
		<g>
			<g>
				<path d="M418.442,288.718c-1.748,2.079-3.339,4.288-4.744,6.613c-0.501,0.828,0.796,1.583,1.295,0.757
					c1.34-2.216,2.843-4.327,4.51-6.309c0.26-0.31,0.304-0.757,0-1.061C419.235,288.45,418.704,288.406,418.442,288.718
					L418.442,288.718z"/>
			</g>
		</g>
		<g>
			<g>
				<path d="M422.511,289.093c0.068,0.551,0.101,1.105,0.096,1.661c-0.003,0.272-0.014,0.544-0.034,0.815
					c-0.01,0.13-0.022,0.26-0.036,0.39c-0.007,0.065-0.015,0.13-0.022,0.195c-0.011,0.088-0.011,0.086,0.001-0.005
					c-0.006,0.043-0.012,0.086-0.019,0.129c-0.031,0.207-0.035,0.389,0.076,0.578c0.091,0.156,0.269,0.304,0.448,0.345
					c0.356,0.081,0.861-0.109,0.923-0.524c0.176-1.192,0.215-2.386,0.067-3.583c-0.025-0.206-0.067-0.378-0.22-0.53
					c-0.13-0.13-0.344-0.228-0.53-0.22C422.895,288.36,422.459,288.676,422.511,289.093L422.511,289.093z"/>
			</g>
		</g>
		<g>
			<g>
				<path d="M426.541,289.097c-0.078,0.722-0.03,1.446,0.107,2.158c0.034,0.176,0.194,0.36,0.345,0.448
					c0.161,0.094,0.398,0.134,0.578,0.076c0.181-0.059,0.357-0.171,0.448-0.345c0.098-0.186,0.115-0.371,0.076-0.578
					c-0.024-0.124-0.044-0.248-0.062-0.373c0.009,0.066,0.018,0.133,0.027,0.199c-0.07-0.526-0.076-1.058-0.019-1.585
					c0.019-0.179-0.098-0.408-0.22-0.53c-0.13-0.13-0.344-0.228-0.53-0.22c-0.194,0.009-0.395,0.072-0.53,0.22
					c-0.039,0.051-0.078,0.101-0.117,0.152C426.575,288.836,426.541,288.962,426.541,289.097L426.541,289.097z"/>
			</g>
		</g>
	</g>
	<g>
		<g>
			<path style="fill:#7A3731;" d="M351.937,346.86c-2.744-2.601-7.489-1.549-10.807-1.123c-4.032,0.518-8.033,1.276-12.087,1.617
				c-6.802,0.572-13.65,0.589-20.455,0.045c-2.125-0.17-4.355-0.378-6.308,0.477c-1.575,0.689-2.809,2.024-3.614,3.543
				c-0.539,1.016-0.906,2.134-0.969,3.282c-0.135,2.463,1.163,4.85,2.998,6.498c1.836,1.648,4.16,2.65,6.507,3.409
				c9.378,3.035,19.626,2.576,29.184,0.164c3.644-0.92,7.282-2.148,10.331-4.346c2.044-1.474,3.785-3.368,5.083-5.528
				c0.747-1.243,1.357-2.606,1.482-4.051C353.407,349.4,352.99,347.858,351.937,346.86z"/>
		</g>
		<path style="fill:#F4F4ED;" d="M305.622,347.28c1.007,2.72,2.519,7.253,6.75,7.757c4.231,0.504,23.876,1.713,28.711-1.914
			s6.735-6.253,3.727-7.757c-0.202-0.101-13.298,2.72-16.723,2.619C324.662,347.884,305.622,347.28,305.622,347.28z"/>
		<path style="fill:#D06867;" d="M317.841,358.294c1.207-1.257,2.265-2.657,3.539-3.847c2.224-2.077,5.088-3.459,8.099-3.906
			c0.893-0.133,1.805-0.185,2.7-0.06c3.04,0.423,5.616,3.103,5.92,6.158c0.09,0.91-0.001,1.828-0.137,2.732
			c-0.1,0.667-0.236,1.356-0.635,1.899c-0.301,0.409-0.729,0.705-1.164,0.966c-3.04,1.826-6.673,2.31-10.19,2.756
			c-4.211,0.533-8.728,1.016-12.489-0.951c-1.732-0.906-1.156-1.599,0.127-2.322C315.173,360.837,316.603,359.582,317.841,358.294z"
			/>
		<path style="fill:#F4F4ED;" d="M344.542,361.566c-0.021-0.721-0.101-1.554-0.7-1.955c-0.483-0.323-1.122-0.232-1.69-0.113
			c-4.863,1.011-9.479,3.1-14.398,3.791c-6.233,0.875-12.525-0.544-18.728-1.607c-0.258-0.044-0.527-0.088-0.78-0.02
			c-0.858,0.23-0.914,1.413-0.786,2.292c1.691,0.171,3.275,1.369,4.921,1.792c4.66,1.198,9.568,1.165,14.333,0.503
			c4.765-0.662,9.421-1.939,14.061-3.212C341.992,362.702,343.326,361.901,344.542,361.566z"/>
		<g>
			<g>
				<path d="M352.467,346.33c-2.77-2.502-6.706-1.995-10.109-1.515c-4.861,0.686-9.716,1.531-14.615,1.891
					c-5.137,0.378-10.296,0.439-15.44,0.184c-4.235-0.211-9.299-1.463-12.649,1.916c-2.916,2.941-3.556,7.368-1.256,10.859
					c2.419,3.673,6.839,5.278,10.911,6.338c9.124,2.377,18.85,1.711,27.901-0.669c4.769-1.255,9.459-3.182,12.858-6.885
					C352.86,355.408,356.051,349.995,352.467,346.33c-0.676-0.691-1.736,0.37-1.061,1.061c3.063,3.133-0.489,8.071-2.833,10.454
					c-2.872,2.921-6.632,4.581-10.516,5.7c-8.149,2.348-16.96,3.235-25.341,1.681c-3.924-0.727-8.447-1.816-11.491-4.558
					c-1.408-1.268-2.513-2.984-2.744-4.894c-0.239-1.97,0.576-3.998,1.844-5.486c2.883-3.384,7.73-2.122,11.606-1.917
					c4.586,0.243,9.184,0.232,13.769-0.031c5.07-0.29,10.037-1.138,15.063-1.806c3.312-0.44,7.864-1.655,10.644,0.856
					C352.121,348.036,353.185,346.978,352.467,346.33z"/>
			</g>
		</g>
	</g>
	<g>
		<path style="fill:#7A3731;" d="M425.061,343.773c-4.088-1.456-8.853-0.354-12.662,1.585c-3.56,1.812-6.736,4.489-7.911,7.907
			c-0.803,2.336-0.616,4.862,0.108,7.217c0.501,1.63,1.269,3.223,2.49,4.54c2.487,2.681,6.629,3.921,10.611,3.939
			c1.71,0.008,3.442-0.19,5.015-0.768c1.89-0.694,3.476-1.91,4.746-3.302c3.373-3.696,4.595-8.607,4.25-13.301
			c-0.109-1.483-0.382-3.004-1.273-4.276c-1.554-2.22-4.612-3.23-7.448-4.09"/>
		<path style="fill:#F4F4ED;" d="M422.311,351.385c2.282,0.016,4.666-0.224,6.576-1.302c0.379-0.214,0.743-0.467,0.971-0.804
			c0.321-0.477,0.33-1.071,0.181-1.607c-0.481-1.724-2.387-2.873-4.302-3.52c-3.756-1.27-8.063-1.097-11.757,0.251
			c-1.599,0.583-4.15,1.639-5.079,2.983c-0.742,1.075,0.097,1.206,1.309,1.681c1.166,0.458,2.365,0.851,3.589,1.176
			C416.552,350.975,419.429,351.365,422.311,351.385z"/>
		<path style="fill:#D06867;" d="M412.614,354.552c1.356-0.49,2.806-0.814,4.205-1.055c2.141-0.368,4.355-0.587,6.502-0.249
			c2.147,0.338,4.237,1.294,5.431,2.87c1.4,1.848,2.127,4.449,0.716,6.308c-1.499,1.975-3.061,4.006-5.342,5.312
			c-3.095,1.773-7.213,1.937-10.697,0.823c-2.643-0.845-7.441-3.164-7.424-6.012c0.011-1.901,1.56-4.781,3.139-6.097
			C410.136,355.624,411.334,355.014,412.614,354.552z"/>
		<g>
			<g>
				<path d="M425.26,343.05c-5.811-1.976-12.555,0.477-17.15,4.175c-2.207,1.776-4.063,4.147-4.655,6.969
					c-0.643,3.07,0.04,6.459,1.54,9.189c2.945,5.364,9.963,7.004,15.628,6.112c6.252-0.985,10.491-6.751,11.559-12.699
					c0.546-3.039,0.763-7.035-1.015-9.731c-1.758-2.666-5.086-3.682-7.981-4.564c-0.926-0.282-1.321,1.166-0.399,1.446
					c2.305,0.702,4.948,1.438,6.625,3.286c1.751,1.929,1.731,5.006,1.54,7.454c-0.408,5.23-3.375,11.014-8.599,12.838
					c-4.712,1.645-11.571,0.654-14.949-3.269c-1.839-2.135-2.767-5.264-2.687-8.054c0.077-2.689,1.36-5.017,3.258-6.863
					c4.179-4.066,11.162-6.79,16.885-4.843C425.777,344.808,426.171,343.359,425.26,343.05L425.26,343.05z"/>
			</g>
		</g>
		<g>
			<g>
				<path d="M412.562,359.715c-0.041-0.035-0.081-0.07-0.122-0.105c-0.068-0.073-0.148-0.125-0.241-0.155
					c-0.089-0.047-0.186-0.069-0.289-0.065c-0.103-0.004-0.2,0.018-0.289,0.065c-0.093,0.03-0.173,0.082-0.241,0.155
					c-0.039,0.051-0.078,0.101-0.117,0.152c-0.068,0.117-0.102,0.243-0.102,0.379c0.009,0.066,0.018,0.133,0.027,0.199
					c0.036,0.127,0.1,0.237,0.193,0.331c0.041,0.035,0.081,0.07,0.122,0.105c0.068,0.073,0.148,0.125,0.241,0.155
					c0.089,0.047,0.186,0.068,0.289,0.065c0.103,0.004,0.2-0.018,0.289-0.065c0.093-0.03,0.173-0.082,0.241-0.155
					c0.039-0.051,0.078-0.101,0.117-0.152c0.068-0.117,0.102-0.243,0.102-0.379c-0.009-0.066-0.018-0.133-0.027-0.199
					C412.719,359.919,412.655,359.809,412.562,359.715L412.562,359.715z"/>
			</g>
		</g>
		<g>
			<g>
				<path d="M412.519,357.316c0.965,0,0.967-1.5,0-1.5C411.554,355.816,411.553,357.316,412.519,357.316L412.519,357.316z"/>
			</g>
		</g>
		<g>
			<g>
				<path d="M413.628,364.75c3.33,1.773,7.482,1.815,10.863,0.156c0.867-0.425,0.107-1.719-0.757-1.295
					c-2.881,1.414-6.518,1.351-9.349-0.156C413.533,363.001,412.774,364.296,413.628,364.75L413.628,364.75z"/>
			</g>
		</g>
	</g>
	<path style="fill:#DE9D8F;" d="M157.631,335.891L157.631,335.891c-39.876,0-72.202-32.326-72.202-72.202V195.71
		c0-39.876,32.326-72.202,72.202-72.202h0c39.876,0,72.202,32.326,72.202,72.202v67.979
		C229.833,303.565,197.507,335.891,157.631,335.891z"/>
	<circle style="fill:#F4F4ED;" cx="136.066" cy="219.233" r="15.997"/>
	<circle style="fill:#F4F4ED;" cx="176.464" cy="219.233" r="15.997"/>
	<circle style="fill:#43A680;" cx="136.066" cy="219.233" r="8.313"/>
	<circle style="fill:#43A680;" cx="176.464" cy="219.233" r="8.313"/>
	<path style="fill:#EC5E00;" d="M108.729,203.236c-0.531-1.27,23.899-13.751,43.019-5.785c0,0,3.983-11.95-1.593-13.277
		c-5.577-1.328-37.973,0-42.753,7.435C102.622,199.045,108.729,203.236,108.729,203.236z"/>
	<path style="fill:#EC5E00;" d="M206.533,203.236c0.531-1.27-23.899-13.751-43.019-5.785c0,0-3.983-11.95,1.593-13.277
		c5.577-1.328,37.973,0,42.753,7.435C212.64,199.045,206.533,203.236,206.533,203.236z"/>
	<g>
		<path style="fill:#C7653B;" d="M150.596,260.918c4.505,0.939-8.845-3.542-10.429-7.863c-1.583-4.321-0.408-9.519,2.879-12.739
			c2.201-2.156,5.143-3.391,7.514-5.359c2.738-2.271,4.644-5.523,5.288-9.022c1.024-5.564-1.071-11.244-0.813-16.895
			c0,0-0.077,21.898-7.234,23.71s-14.459,11.487-11.735,18.436C138.79,258.134,146.944,260.157,150.596,260.918z"/>
	</g>
	<g>
		<g>
			<path d="M158.083,257.335c-0.215,0.158-0.368,0.337-0.4,0.609c-0.031,0.263,0.054,0.521,0.24,0.712
				c0.363,0.372,0.941,0.303,1.287-0.049c0.07-0.071,0.124-0.157,0.184-0.237c0.136-0.182-0.081,0.069,0.077-0.094
				c0.091-0.094,0.181-0.187,0.28-0.274c0.159-0.14-0.082,0.04,0.098-0.073c0.055-0.035,0.109-0.071,0.166-0.104
				c0.057-0.033,0.115-0.062,0.172-0.094c0.188-0.104-0.093,0.023,0.109-0.049c0.123-0.044,0.248-0.083,0.376-0.111
				c0.002,0,0.238-0.039,0.11-0.024c0.065-0.008,0.13-0.011,0.196-0.013c0.065-0.002,0.131-0.002,0.196,0
				c0.001,0,0.241,0.021,0.113,0.004c0.129,0.017,0.258,0.049,0.382,0.087c0.075,0.023,0.15,0.048,0.223,0.077
				c-0.09-0.036,0.043,0.022,0.072,0.036c0.129,0.065,0.252,0.139,0.37,0.221c0.061,0.042,0.102,0.078,0.209,0.184
				c0.056,0.055,0.109,0.113,0.16,0.172c0.08,0.094,0.006,0.049-0.007-0.015c0-0.133,0-0.266,0-0.399
				c0.009-0.02,0.017-0.04,0.026-0.06c0.09-0.09,0.179-0.179,0.269-0.269c0.082-0.021,0.08-0.021-0.007-0.001
				c-0.095,0.015-0.113,0.019-0.056,0.01c-0.114,0.015-0.229,0.021-0.344,0.025c-0.202,0.007-0.405,0.002-0.607-0.01
				c-0.424-0.025-0.844-0.082-1.266-0.127c-0.867-0.093-1.772-0.124-2.598,0.204c-0.376,0.149-0.64,0.501-0.524,0.923
				c0.113,0.413,0.524,0.605,0.923,0.524c1.345-0.274,2.69-0.549,4.035-0.823c0.397-0.081,0.626-0.551,0.524-0.923
				c-0.113-0.413-0.524-0.605-0.923-0.524c-1.345,0.274-2.69,0.549-4.035,0.823c0.133,0.482,0.266,0.964,0.399,1.446
				c0.751-0.298,1.485-0.23,2.33-0.136c0.844,0.094,1.771,0.247,2.609,0.02c0.718-0.195,0.893-0.994,0.471-1.55
				c-0.265-0.35-0.588-0.642-0.96-0.876c-0.755-0.474-1.659-0.63-2.532-0.483c-0.445,0.075-0.89,0.253-1.27,0.496
				c-0.217,0.139-0.427,0.302-0.612,0.483c-0.075,0.073-0.145,0.15-0.211,0.231c-0.049,0.06-0.095,0.121-0.142,0.182
				c-0.025,0.031-0.048,0.062-0.071,0.094c-0.083,0.108-0.012,0.061,0.213-0.141c0.133,0,0.266,0,0.399,0
				c-0.015-0.003-0.03-0.006-0.044-0.009c0.11,0.064,0.221,0.129,0.331,0.193c0.041,0.074,0.082,0.147,0.123,0.221
				c0,0.133,0,0.266,0,0.399c0.003-0.012,0.006-0.025,0.01-0.037c-0.115,0.149-0.23,0.299-0.345,0.448
				c0.011-0.008,0.022-0.016,0.032-0.024c0.326-0.239,0.489-0.651,0.269-1.026C158.921,257.282,158.411,257.094,158.083,257.335
				L158.083,257.335z"/>
		</g>
	</g>
	<g>
		<g>
			<path d="M140.394,254.139c3.228,3.26,7.344,5.574,11.81,6.625c0.939,0.221,1.339-1.225,0.399-1.446
				c-4.227-0.995-8.092-3.154-11.148-6.24C140.775,252.391,139.714,253.452,140.394,254.139L140.394,254.139z"/>
		</g>
	</g>
	<g>
		<g>
			<path style="fill:#C7653B;" d="M163.606,243.918c2.554,1.678,4.794,4.034,5.382,7.131c0.535,2.819-0.749,5.999-3.615,6.953
				c-0.911,0.303-0.521,1.752,0.399,1.446c3.385-1.126,5.193-4.642,4.772-8.086c-0.464-3.793-3.096-6.715-6.18-8.74
				C163.554,242.091,162.802,243.389,163.606,243.918L163.606,243.918z"/>
		</g>
	</g>
	<g>
		<g>
			<path style="fill:#C7653B;" d="M152.479,244.322c0-0.054,0-0.109,0-0.163c0.004-0.103-0.018-0.2-0.065-0.289
				c-0.03-0.093-0.082-0.173-0.155-0.241c-0.068-0.073-0.148-0.125-0.241-0.155c-0.089-0.047-0.186-0.068-0.289-0.065
				c-0.066,0.009-0.133,0.018-0.199,0.027c-0.127,0.036-0.237,0.1-0.331,0.193c-0.039,0.051-0.078,0.101-0.117,0.152
				c-0.068,0.117-0.102,0.243-0.102,0.379c0,0.054,0,0.109,0,0.163c-0.004,0.103,0.018,0.2,0.065,0.289
				c0.03,0.093,0.082,0.173,0.155,0.241c0.068,0.073,0.148,0.125,0.241,0.155c0.089,0.047,0.186,0.068,0.289,0.065
				c0.066-0.009,0.133-0.018,0.199-0.027c0.127-0.036,0.237-0.1,0.331-0.193c0.039-0.051,0.078-0.101,0.117-0.152
				C152.444,244.584,152.478,244.458,152.479,244.322L152.479,244.322z"/>
		</g>
	</g>
	<g>
		<g>
			<path style="fill:#C7653B;" d="M154.27,236.829c0-0.054,0-0.109,0-0.163c0.004-0.103-0.018-0.2-0.065-0.289
				c-0.03-0.093-0.082-0.173-0.155-0.241c-0.068-0.073-0.148-0.125-0.241-0.155c-0.089-0.047-0.186-0.068-0.289-0.065
				c-0.066,0.009-0.133,0.018-0.199,0.027c-0.127,0.036-0.237,0.1-0.331,0.193c-0.039,0.051-0.078,0.101-0.117,0.152
				c-0.068,0.117-0.102,0.243-0.102,0.379c0,0.054,0,0.109,0,0.163c-0.004,0.103,0.018,0.2,0.065,0.289
				c0.03,0.093,0.082,0.173,0.155,0.241c0.068,0.073,0.148,0.125,0.241,0.155c0.089,0.047,0.186,0.068,0.289,0.065
				c0.066-0.009,0.133-0.018,0.199-0.027c0.127-0.036,0.237-0.1,0.331-0.193c0.039-0.051,0.078-0.101,0.117-0.152
				C154.236,237.091,154.27,236.964,154.27,236.829L154.27,236.829z"/>
		</g>
	</g>
	<g>
		<g>
			<path style="fill:#C7653B;" d="M172.048,242.366c-0.009-0.095-0.016-0.197-0.045-0.29c-0.028-0.091-0.066-0.18-0.111-0.264
				c-0.044-0.082-0.113-0.161-0.168-0.229c-0.02-0.025-0.042-0.049-0.066-0.07c-0.057-0.051-0.121-0.096-0.182-0.142
				c-0.013-0.01-0.027-0.02-0.041-0.029c-0.079-0.05-0.179-0.085-0.261-0.118c-0.031-0.012-0.062-0.022-0.095-0.028
				c-0.094-0.017-0.194-0.036-0.291-0.034c-0.103-0.004-0.2,0.018-0.289,0.065c-0.093,0.03-0.173,0.082-0.241,0.155
				c-0.073,0.068-0.125,0.148-0.155,0.241c-0.047,0.089-0.068,0.186-0.065,0.289c0.009,0.066,0.018,0.133,0.027,0.199
				c0.036,0.127,0.1,0.237,0.193,0.331c0.051,0.039,0.101,0.078,0.152,0.117c0.117,0.068,0.243,0.102,0.379,0.102
				c0.024,0,0.047,0.001,0.071,0.004c-0.066-0.009-0.133-0.018-0.199-0.027c0.042,0.006,0.083,0.018,0.123,0.034
				c-0.06-0.025-0.119-0.05-0.179-0.076c0.042,0.018,0.08,0.041,0.116,0.068c-0.051-0.039-0.101-0.078-0.152-0.117
				c0.038,0.029,0.071,0.063,0.1,0.101c-0.039-0.051-0.078-0.101-0.117-0.152c0.026,0.034,0.047,0.071,0.064,0.11
				c-0.025-0.06-0.05-0.119-0.076-0.179c0.015,0.037,0.026,0.076,0.032,0.116c-0.009-0.066-0.018-0.133-0.027-0.199
				c0.001,0.007,0.002,0.014,0.002,0.021c-0.004,0.103,0.018,0.2,0.065,0.289c0.03,0.093,0.082,0.173,0.155,0.241
				c0.068,0.073,0.148,0.125,0.241,0.155c0.089,0.047,0.186,0.068,0.289,0.065c0.066-0.009,0.133-0.018,0.199-0.027
				c0.127-0.036,0.237-0.1,0.331-0.193c0.039-0.051,0.078-0.101,0.117-0.152C172.013,242.627,172.047,242.501,172.048,242.366
				L172.048,242.366z"/>
		</g>
	</g>
	<g>
		<g>
			<path style="fill:#C7653B;" d="M163.09,238.174c0.054,0.054,0.109,0.109,0.163,0.163c0.068,0.073,0.148,0.125,0.241,0.155
				c0.089,0.047,0.186,0.068,0.289,0.065c0.103,0.004,0.2-0.018,0.289-0.065c0.093-0.03,0.173-0.082,0.241-0.155
				c0.039-0.051,0.078-0.101,0.117-0.152c0.068-0.117,0.102-0.243,0.102-0.379c-0.009-0.066-0.018-0.133-0.027-0.199
				c-0.036-0.127-0.1-0.237-0.193-0.331c-0.054-0.054-0.109-0.109-0.163-0.163c-0.068-0.073-0.148-0.125-0.241-0.155
				c-0.089-0.047-0.186-0.068-0.289-0.065c-0.103-0.004-0.2,0.018-0.289,0.065c-0.093,0.03-0.173,0.082-0.241,0.155
				c-0.039,0.051-0.078,0.101-0.117,0.152c-0.068,0.117-0.102,0.243-0.102,0.379c0.009,0.066,0.018,0.133,0.027,0.199
				C162.933,237.97,162.997,238.08,163.09,238.174L163.09,238.174z"/>
		</g>
	</g>
	<g>
		<g>
			<path style="fill:#C7653B;" d="M157.267,243.606c0.054,0,0.109,0,0.163,0c0.103,0.004,0.2-0.018,0.289-0.065
				c0.093-0.03,0.173-0.082,0.241-0.155c0.073-0.068,0.125-0.148,0.155-0.241c0.047-0.089,0.068-0.186,0.065-0.289
				c-0.009-0.066-0.018-0.133-0.027-0.199c-0.036-0.127-0.1-0.237-0.193-0.331c-0.051-0.039-0.101-0.078-0.152-0.117
				c-0.117-0.068-0.243-0.102-0.379-0.102c-0.054,0-0.109,0-0.163,0c-0.103-0.004-0.2,0.018-0.289,0.065
				c-0.093,0.03-0.173,0.082-0.241,0.155c-0.073,0.068-0.125,0.148-0.155,0.241c-0.047,0.089-0.068,0.186-0.065,0.289
				c0.009,0.066,0.018,0.133,0.027,0.199c0.036,0.127,0.1,0.237,0.193,0.331c0.051,0.039,0.101,0.078,0.152,0.117
				C157.006,243.572,157.132,243.606,157.267,243.606L157.267,243.606z"/>
		</g>
	</g>
	<g>
		<g>
			<path style="fill:#C7653B;" d="M132.344,241.651c0.965,0,0.967-1.5,0-1.5C131.378,240.151,131.377,241.651,132.344,241.651
				L132.344,241.651z"/>
		</g>
	</g>
	<g>
		<g>
			<path style="fill:#C7653B;" d="M122.668,238.947c0-0.034,0-0.067,0-0.101c0-0.965-1.5-0.967-1.5,0c0,0.034,0,0.067,0,0.101
				C121.168,239.912,122.668,239.913,122.668,238.947c0-0.034,0-0.067,0-0.101c0-0.965-1.5-0.967-1.5,0c0,0.034,0,0.067,0,0.101
				C121.168,239.912,122.668,239.913,122.668,238.947L122.668,238.947z"/>
		</g>
	</g>
	<g>
		<g>
			<path style="fill:#C7653B;" d="M122.896,244.224c-0.054,0-0.109,0-0.163,0c-0.103-0.004-0.2,0.018-0.289,0.065
				c-0.093,0.03-0.173,0.082-0.241,0.155c-0.073,0.068-0.125,0.148-0.155,0.241c-0.047,0.089-0.068,0.186-0.065,0.289
				c0.009,0.066,0.018,0.133,0.027,0.199c0.036,0.127,0.1,0.237,0.193,0.331c0.051,0.039,0.101,0.078,0.152,0.117
				c0.117,0.068,0.243,0.102,0.379,0.102c0.054,0,0.109,0,0.163,0c0.103,0.004,0.2-0.018,0.289-0.065
				c0.093-0.03,0.173-0.082,0.241-0.155c0.073-0.068,0.125-0.148,0.155-0.241c0.047-0.089,0.068-0.186,0.065-0.289
				c-0.009-0.066-0.018-0.133-0.027-0.199c-0.036-0.127-0.1-0.237-0.193-0.331c-0.051-0.039-0.101-0.078-0.152-0.117
				C123.157,244.258,123.031,244.224,122.896,244.224L122.896,244.224z"/>
		</g>
	</g>
	<g>
		<g>
			<path style="fill:#C7653B;" d="M110.678,245.235c0.965,0,0.967-1.5,0-1.5C109.713,243.735,109.711,245.235,110.678,245.235
				L110.678,245.235z"/>
		</g>
	</g>
	<g>
		<g>
			<path style="fill:#C7653B;" d="M176.099,247.743c0-0.054,0-0.109,0-0.163c0.004-0.103-0.018-0.2-0.065-0.289
				c-0.03-0.093-0.082-0.173-0.155-0.241c-0.068-0.073-0.148-0.125-0.241-0.155c-0.089-0.047-0.186-0.068-0.289-0.065
				c-0.066,0.009-0.133,0.018-0.199,0.027c-0.127,0.036-0.237,0.1-0.331,0.193c-0.039,0.051-0.078,0.101-0.117,0.152
				c-0.068,0.117-0.102,0.243-0.102,0.379c0,0.054,0,0.109,0,0.163c-0.004,0.103,0.018,0.2,0.065,0.289
				c0.03,0.093,0.082,0.173,0.155,0.241c0.068,0.073,0.148,0.125,0.241,0.155c0.089,0.047,0.186,0.068,0.289,0.065
				c0.066-0.009,0.133-0.018,0.199-0.027c0.127-0.036,0.237-0.1,0.331-0.193c0.039-0.051,0.078-0.101,0.117-0.152
				C176.064,248.005,176.098,247.879,176.099,247.743L176.099,247.743z"/>
		</g>
	</g>
	<g>
		<g>
			<path style="fill:#C7653B;" d="M182.721,248.842c-0.054-0.054-0.109-0.109-0.163-0.163c-0.068-0.073-0.148-0.125-0.241-0.155
				c-0.089-0.047-0.186-0.068-0.289-0.065c-0.103-0.004-0.2,0.018-0.289,0.065c-0.093,0.03-0.173,0.082-0.241,0.155
				c-0.039,0.051-0.078,0.101-0.117,0.152c-0.068,0.117-0.102,0.243-0.102,0.379c0.009,0.066,0.018,0.133,0.027,0.199
				c0.036,0.127,0.1,0.237,0.193,0.331c0.054,0.054,0.109,0.109,0.163,0.163c0.068,0.073,0.148,0.125,0.241,0.155
				c0.089,0.047,0.186,0.068,0.289,0.065c0.103,0.004,0.2-0.018,0.289-0.065c0.093-0.03,0.173-0.082,0.241-0.155
				c0.039-0.051,0.078-0.101,0.117-0.152c0.068-0.117,0.102-0.243,0.102-0.379c-0.009-0.066-0.018-0.133-0.027-0.199
				C182.878,249.046,182.814,248.935,182.721,248.842L182.721,248.842z"/>
		</g>
	</g>
	<g>
		<g>
			<path style="fill:#C7653B;" d="M181.023,243.868c0.217,0.054,0.435,0.108,0.652,0.161c0.1,0.031,0.199,0.036,0.299,0.013
				c0.1-0.005,0.193-0.034,0.279-0.089c0.087-0.047,0.158-0.112,0.21-0.193c0.066-0.072,0.111-0.157,0.134-0.255
				c0.009-0.066,0.018-0.133,0.027-0.199c0-0.135-0.035-0.262-0.102-0.379c-0.039-0.051-0.078-0.101-0.117-0.152
				c-0.094-0.093-0.204-0.157-0.331-0.193c-0.217-0.054-0.435-0.108-0.652-0.161c-0.1-0.031-0.199-0.036-0.299-0.013
				c-0.1,0.005-0.193,0.034-0.279,0.089c-0.087,0.047-0.158,0.112-0.21,0.193c-0.066,0.072-0.111,0.157-0.134,0.255
				c-0.009,0.066-0.018,0.133-0.027,0.199c0,0.135,0.035,0.262,0.102,0.379c0.039,0.051,0.078,0.101,0.117,0.152
				C180.786,243.768,180.896,243.833,181.023,243.868L181.023,243.868z"/>
		</g>
	</g>
	<g>
		<g>
			<path style="fill:#C7653B;" d="M196.973,249.331c-0.054,0.054-0.109,0.109-0.163,0.163c-0.073,0.068-0.125,0.148-0.155,0.241
				c-0.047,0.089-0.068,0.186-0.065,0.289c-0.004,0.103,0.018,0.2,0.065,0.289c0.03,0.093,0.082,0.173,0.155,0.241
				c0.051,0.039,0.101,0.078,0.152,0.117c0.117,0.068,0.243,0.102,0.379,0.102c0.066-0.009,0.133-0.018,0.199-0.027
				c0.127-0.036,0.237-0.1,0.331-0.193c0.054-0.054,0.109-0.109,0.163-0.163c0.073-0.068,0.125-0.148,0.155-0.241
				c0.047-0.089,0.068-0.186,0.065-0.289c0.004-0.103-0.018-0.2-0.065-0.289c-0.03-0.093-0.082-0.173-0.155-0.241
				c-0.051-0.039-0.101-0.078-0.152-0.117c-0.117-0.068-0.243-0.102-0.379-0.102c-0.066,0.009-0.133,0.018-0.199,0.027
				C197.177,249.173,197.066,249.238,196.973,249.331L196.973,249.331z"/>
		</g>
	</g>
	<g>
		<g>
			<path style="fill:#C7653B;" d="M194.104,238.577c-0.055,0.108-0.11,0.216-0.165,0.325c-0.055,0.086-0.084,0.179-0.089,0.279
				c-0.022,0.1-0.018,0.199,0.013,0.299c0.023,0.098,0.068,0.183,0.134,0.255c0.053,0.082,0.123,0.146,0.21,0.193
				c0.06,0.025,0.119,0.05,0.179,0.076c0.133,0.036,0.266,0.036,0.399,0c0.06-0.025,0.119-0.05,0.179-0.076
				c0.113-0.067,0.202-0.156,0.269-0.269c0.055-0.108,0.11-0.216,0.165-0.325c0.055-0.086,0.084-0.179,0.089-0.279
				c0.022-0.1,0.018-0.199-0.013-0.299c-0.023-0.098-0.068-0.183-0.134-0.255c-0.053-0.082-0.123-0.146-0.21-0.193
				c-0.06-0.025-0.119-0.05-0.179-0.076c-0.133-0.036-0.266-0.036-0.399,0c-0.06,0.025-0.119,0.05-0.179,0.076
				C194.26,238.375,194.171,238.465,194.104,238.577L194.104,238.577z"/>
		</g>
	</g>
	<g>
		<g>
			<path style="fill:#C7653B;" d="M126.479,253.869c0.965,0,0.967-1.5,0-1.5C125.514,252.369,125.513,253.869,126.479,253.869
				L126.479,253.869z"/>
		</g>
	</g>
	<g>
		<g>
			<path style="fill:#C7653B;" d="M114.262,250.448c0.965,0,0.967-1.5,0-1.5C113.297,248.948,113.295,250.448,114.262,250.448
				L114.262,250.448z"/>
		</g>
	</g>
	<g>
		<g>
			<path style="fill:#C7653B;" d="M111.656,234.973c0.965,0,0.967-1.5,0-1.5C110.69,233.473,110.689,234.973,111.656,234.973
				L111.656,234.973z"/>
		</g>
	</g>
	<g>
		<g>
			<path style="fill:#C7653B;" d="M100.741,244.909c0.054,0,0.109,0,0.163,0c0.103,0.004,0.2-0.018,0.289-0.065
				c0.093-0.03,0.173-0.082,0.241-0.155c0.073-0.068,0.125-0.148,0.155-0.241c0.047-0.089,0.068-0.186,0.065-0.289
				c-0.009-0.066-0.018-0.133-0.027-0.199c-0.036-0.127-0.1-0.237-0.193-0.331c-0.051-0.039-0.101-0.078-0.152-0.117
				c-0.117-0.068-0.243-0.102-0.379-0.102c-0.054,0-0.109,0-0.163,0c-0.103-0.004-0.2,0.018-0.289,0.065
				c-0.093,0.03-0.173,0.082-0.241,0.155c-0.073,0.068-0.125,0.148-0.155,0.241c-0.047,0.089-0.068,0.186-0.065,0.289
				c0.009,0.066,0.018,0.133,0.027,0.199c0.036,0.127,0.1,0.237,0.193,0.331c0.051,0.039,0.101,0.078,0.152,0.117
				C100.48,244.875,100.606,244.909,100.741,244.909L100.741,244.909z"/>
		</g>
	</g>
	<g>
		<g>
			<path style="fill:#C7653B;" d="M192.669,251.494c-0.217-0.109-0.434-0.217-0.652-0.326c-0.086-0.055-0.179-0.084-0.279-0.089
				c-0.1-0.022-0.199-0.018-0.299,0.013c-0.098,0.023-0.183,0.068-0.255,0.134c-0.082,0.053-0.146,0.123-0.193,0.21
				c-0.025,0.06-0.05,0.119-0.076,0.179c-0.036,0.133-0.036,0.266,0,0.399c0.025,0.06,0.05,0.119,0.076,0.179
				c0.067,0.113,0.156,0.202,0.269,0.269c0.217,0.109,0.434,0.217,0.652,0.326c0.086,0.055,0.179,0.084,0.279,0.089
				c0.1,0.022,0.199,0.018,0.299-0.013c0.098-0.023,0.183-0.068,0.255-0.134c0.082-0.053,0.146-0.123,0.193-0.21
				c0.025-0.06,0.05-0.119,0.076-0.179c0.036-0.133,0.036-0.266,0-0.399c-0.025-0.06-0.05-0.119-0.076-0.179
				C192.871,251.65,192.782,251.561,192.669,251.494L192.669,251.494z"/>
		</g>
	</g>
	<g>
		<g>
			<path style="fill:#C7653B;" d="M205.224,245.626c0,0.109,0,0.217,0,0.326c-0.004,0.103,0.018,0.2,0.065,0.289
				c0.03,0.093,0.082,0.173,0.155,0.241c0.068,0.073,0.148,0.125,0.241,0.155c0.089,0.047,0.186,0.068,0.289,0.065
				c0.066-0.009,0.133-0.018,0.199-0.027c0.127-0.036,0.237-0.1,0.331-0.193c0.039-0.051,0.078-0.101,0.117-0.152
				c0.068-0.117,0.102-0.243,0.102-0.379c0-0.109,0-0.217,0-0.326c0.004-0.103-0.018-0.2-0.065-0.289
				c-0.03-0.093-0.082-0.173-0.155-0.241c-0.068-0.073-0.148-0.125-0.241-0.155c-0.089-0.047-0.186-0.068-0.289-0.065
				c-0.066,0.009-0.133,0.018-0.199,0.027c-0.127,0.036-0.237,0.1-0.331,0.193c-0.039,0.051-0.078,0.101-0.117,0.152
				C205.258,245.364,205.224,245.49,205.224,245.626L205.224,245.626z"/>
		</g>
	</g>
	<g>
		<g>
			<path d="M133.631,282.627c2.762,1.536,5.938,2.507,8.984,3.268c7.527,1.881,15.415,2.09,23.058,0.822
				c6.012-0.997,11.816-2.943,17.316-5.549c0.872-0.413,0.111-1.707-0.757-1.295c-13.953,6.611-30.544,8.465-45.118,2.698
				c-0.925-0.366-1.856-0.755-2.726-1.239C133.544,280.862,132.786,282.157,133.631,282.627L133.631,282.627z"/>
		</g>
	</g>
	<g>
		<g>
			<path style="fill:#C7653B;" d="M145.088,290.925c6.926,3.594,15.207,4.177,22.551,1.513c0.9-0.327,0.512-1.777-0.399-1.446
				c-6.968,2.528-14.808,2.056-21.395-1.362C144.989,289.186,144.23,290.48,145.088,290.925L145.088,290.925z"/>
		</g>
	</g>
	<g>
		<g>
			<path style="fill:#C7653B;" d="M152.432,282.985c3.56,0.057,7.121,0.114,10.681,0.172c0.966,0.016,0.966-1.484,0-1.5
				c-3.56-0.057-7.121-0.114-10.681-0.172C151.466,281.47,151.466,282.97,152.432,282.985L152.432,282.985z"/>
		</g>
	</g>
	<circle cx="136.066" cy="219.233" r="2.93"/>
	<circle cx="176.464" cy="219.233" r="2.93"/>
	<g>
		<g>
			<path style="fill:#C7653B;" d="M118.281,209.704c0.965,0,0.967-1.5,0-1.5C117.316,208.204,117.315,209.704,118.281,209.704
				L118.281,209.704z"/>
		</g>
	</g>
	<g>
		<g>
			<path style="fill:#C7653B;" d="M118.79,209.948c3.259-4.071,7.68-7.205,12.77-8.491c5.296-1.338,11.046-0.491,15.629,2.51
				c0.81,0.53,1.562-0.768,0.757-1.295c-4.827-3.161-10.905-4.062-16.494-2.733c-5.433,1.292-10.254,4.615-13.723,8.948
				C117.131,209.633,118.186,210.701,118.79,209.948L118.79,209.948z"/>
		</g>
	</g>
	<g>
		<g>
			<path style="fill:#C7653B;" d="M164.791,204.442c4.106-2.704,9.061-3.953,13.959-3.398c4.715,0.534,9.147,2.772,12.473,6.133
				c0.68,0.687,1.741-0.374,1.061-1.061c-7.46-7.538-19.383-8.809-28.25-2.969C163.231,203.675,163.982,204.975,164.791,204.442
				L164.791,204.442z"/>
		</g>
	</g>
	<g>
		<g>
			<path style="fill:#C7653B;" d="M167.182,236.651c6.026,4.67,14.583,5.362,21.247,1.613c0.841-0.473,0.086-1.77-0.757-1.295
				c-6.021,3.388-13.951,2.867-19.429-1.378C167.489,235.006,166.42,236.06,167.182,236.651L167.182,236.651z"/>
		</g>
	</g>
	<path style="fill:#EC5E00;" d="M202.744,145.939c-3.092,9.99-3.092,20.913,0,30.903s9.262,19.004,17.456,25.501
		c2.514,10.452,3.864,22.033,2.359,32.678c1.632-0.465,3.747,0.75,4.906-0.49c0.321-0.344,0.472-0.809,0.611-1.259
		c1.852-6.007,3.18-12.176,3.963-18.413c1.411-11.24,3.135-22.03-0.205-32.855c-2.27-7.358-4.727-14.659-7.369-21.893
		c-1.959-5.365-4.062-10.772-7.493-15.338c-4.553-6.058-11.133-10.234-17.728-13.966c-6.171-3.492-12.492-6.718-18.922-9.706
		c-6.949-3.229-14.203-6.222-21.853-6.655c-7.474-0.423-14.848,1.625-22.008,3.81c-11.578,3.532-23.14,7.525-33.461,13.85
		c-10.321,6.325-19.416,15.197-24.149,26.338c-4.363,10.269-4.784,21.726-4.943,32.882c-0.108,7.618,0.124,15.952,5.06,21.756
		c2.594,3.05,4.248,7.791,4.767,11.761s0.382,7.993,0.243,11.995c1.77,0.27,3.539,0.541,5.309,0.811
		c0.26-6.842-0.147-13.709-1.211-20.473c0.702-1.659,0.52-3.249,0.992-4.987c0.716-2.632,1.163-5.365,0.978-8.087
		c-0.357-5.231-3.026-10.238-2.535-15.458c1.868,1.282,4.859,1.211,7.125,1.182c4.732-0.061,9.45-1.083,13.782-2.988
		c1.335-0.587,2.656-1.272,3.699-2.292c1.141-1.116,1.887-2.572,2.497-4.046c1.366-3.302,2.151-6.845,2.308-10.415
		c4.614,4.566,11.667,6.032,17.165,2.58c5.498-3.451,8.123-10.876,6.015-17.016c-0.188,0.704,0.294,0.781,0.804,1.302
		c0.51,0.52,1.191,0.834,1.873,1.09c3.365,1.262,7.272,1.319,10.464-0.331c3.193-1.65,5.486-5.146,5.243-8.732
		c4.582,5.736,12.4,10.128,19.74,10.286s14.683-3.087,19.507-8.621C199.689,148.4,200.299,147.636,202.744,145.939z"/>
	<path style="fill:#BCB1EB;" d="M256.204,383.68c0,0-2.54,49.16-91.7,49.16S53.694,395.9,53.694,395.9
		c12.23-3.31,29.8-14.77,49.42-23.94c0.55-0.26,1.09-0.55,1.61-0.88l33.14,8.45c19.07,0.89,39.25,3.11,52.12-1.55l27.86-14.42
		C233.924,383.6,256.204,383.68,256.204,383.68z"/>
	<path style="fill:#F4F4ED;" d="M118.862,339.821c0.21-4.291-15.536,31.759-24.091,36.213c8.24,9.755,17.684,19.488,28.463,26.408
		c4.301,2.761,11.037,6.842,15.689,3.109c7.08-5.683,11.736-14.394,12.52-23.436c0.039-0.445,0.107-0.958,0.485-1.196
		c0.232-0.145,0.523-0.145,0.797-0.14c1.79,0.032,3.58,0.064,5.37,0.095c-0.215-2.798-0.864-5.628-2.399-7.977
		c-2.638-4.039-8.099-5.472-12.398-7.061c-3.804-1.406-7.555-3.004-11.055-5.064C124.566,356.253,118.402,349.215,118.862,339.821z"
		/>
	<path style="fill:#F4F4ED;" d="M206.471,339.821c-0.21-4.291,15.536,31.759,24.091,36.213c-0.18-0.094-4.358,4.892-4.639,5.197
		c-5.51,5.955-11.322,11.703-17.676,16.759c-4.241,3.375-15.739,13.089-20.693,6.856c-5.611-7.059-10.052-15.046-13.089-23.537
		c-1.667-0.056-3.334-0.113-5-0.169c-0.277-0.009-0.578-0.028-0.788-0.209c-0.262-0.227-0.284-0.62-0.282-0.967
		c0.022-3.449-0.17-7.07,2.64-9.433c2.355-1.98,5.647-2.804,8.491-3.798C189.36,363.297,207.28,356.337,206.471,339.821z"/>
	<g>
		<g>
			<path d="M201.722,319.926c-8.623,6.758-18.758,11.487-29.484,13.722c-11.299,2.355-23.164,1.922-34.262-1.245
				c-6.176-1.763-12.074-4.371-17.56-7.707c-0.827-0.503-1.582,0.794-0.757,1.295c10.073,6.125,21.539,9.75,33.306,10.501
				c11.529,0.735,23.159-1.291,33.756-5.888c5.752-2.495,11.13-5.752,16.062-9.618C203.542,320.392,202.473,319.337,201.722,319.926
				L201.722,319.926z"/>
		</g>
	</g>
	<g>
		<g>
			<path d="M152.56,373.478c-1.977,10.758-5.547,21.176-10.608,30.874c-0.446,0.855,0.848,1.614,1.295,0.757
				c5.119-9.809,8.76-20.349,10.759-31.232C154.18,372.933,152.735,372.529,152.56,373.478L152.56,373.478z"/>
		</g>
	</g>
	<g>
		<g>
			<path d="M171.377,373.162c4.019,11.583,8.237,23.488,16.497,32.814c0.641,0.724,1.699-0.34,1.061-1.061
				c-8.078-9.121-12.181-20.826-16.111-32.152C172.509,371.857,171.059,372.247,171.377,373.162L171.377,373.162z"/>
		</g>
	</g>
	<g>
		<g>
			<path d="M151.706,380.489c7.29,1.492,14.737,2.066,22.168,1.686c0.961-0.049,0.966-1.549,0-1.5
				c-7.299,0.374-14.609-0.167-21.77-1.632C151.162,378.85,150.759,380.296,151.706,380.489L151.706,380.489z"/>
		</g>
	</g>
	<g>
		<g>
			<path d="M156.748,381.069c-0.782,5.632-1.564,11.263-2.346,16.895c-0.131,0.944,1.314,1.352,1.446,0.399
				c0.782-5.632,1.564-11.263,2.346-16.895C158.325,380.524,156.88,380.116,156.748,381.069L156.748,381.069z"/>
		</g>
	</g>
	<g>
		<g>
			<path d="M164.26,381.462c-0.219,4.905-0.648,9.801-1.305,14.667c-0.127,0.944,1.318,1.352,1.446,0.399
				c0.675-5.001,1.134-10.025,1.358-15.066C165.803,380.497,164.303,380.499,164.26,381.462L164.26,381.462z"/>
		</g>
	</g>
	<g>
		<g>
			<path d="M171.301,382.325c-0.018,5.141-0.036,10.282-0.055,15.422c-0.003,0.965,1.497,0.967,1.5,0
				c0.018-5.141,0.036-10.282,0.055-15.422C172.805,381.36,171.305,381.358,171.301,382.325L171.301,382.325z"/>
		</g>
	</g>
</g>
</svg>
